<svg id="visual" viewBox="0 0 960 540" width="960" height="540" xmlns="http://www.w3.org/2000/svg" xmlns:xlink="http://www.w3.org/1999/xlink" version="1.1"><rect x="0" y="0" width="960" height="540" fill="#ffffff"></rect><defs><linearGradient id="grad1_0" x1="43.8%" y1="100%" x2="100%" y2="0%"><stop offset="14.444444444444446%" stop-color="#ffffff" stop-opacity="1"></stop><stop offset="85.55555555555554%" stop-color="#ffffff" stop-opacity="1"></stop></linearGradient></defs><defs><linearGradient id="grad2_0" x1="0%" y1="100%" x2="56.3%" y2="0%"><stop offset="14.444444444444446%" stop-color="#ffffff" stop-opacity="1"></stop><stop offset="85.55555555555554%" stop-color="#ffffff" stop-opacity="1"></stop></linearGradient></defs><g transform="translate(960, 540)"><path d="M-243 0C-237.8 -44.5 -232.5 -88.9 -210.4 -121.5C-188.3 -154.1 -149.4 -174.8 -111.5 -193.1C-73.6 -211.4 -36.8 -227.2 0 -243L0 0Z" fill="#E11B22"></path></g><g transform="translate(0, 0)"><path d="M243 0C240.1 48.5 237.2 97 210.4 121.5C183.7 146 133.1 146.6 94 162.8C54.9 179.1 27.5 211 0 243L0 0Z" fill="#E11B22"></path></g></svg>