<svg id="visual" viewBox="0 0 960 540" width="960" height="540" xmlns="http://www.w3.org/2000/svg" xmlns:xlink="http://www.w3.org/1999/xlink" version="1.1"><path d="M0 82L87 82L87 50L175 50L175 82L262 82L262 66L349 66L349 50L436 50L436 60L524 60L524 87L611 87L611 33L698 33L698 77L785 77L785 93L873 93L873 39L960 39L960 82L960 0L960 0L873 0L873 0L785 0L785 0L698 0L698 0L611 0L611 0L524 0L524 0L436 0L436 0L349 0L349 0L262 0L262 0L175 0L175 0L87 0L87 0L0 0Z" fill="#ccf4fc"></path><path d="M0 293L87 293L87 222L175 222L175 158L262 158L262 147L349 147L349 163L436 163L436 163L524 163L524 255L611 255L611 212L698 212L698 217L785 217L785 217L873 217L873 249L960 249L960 201L960 80L960 37L873 37L873 91L785 91L785 75L698 75L698 31L611 31L611 85L524 85L524 58L436 58L436 48L349 48L349 64L262 64L262 80L175 80L175 48L87 48L87 80L0 80Z" fill="#8ecae3"></path><path d="M0 422L87 422L87 379L175 379L175 395L262 395L262 384L349 384L349 390L436 390L436 336L524 336L524 374L611 374L611 330L698 330L698 325L785 325L785 374L873 374L873 384L960 384L960 347L960 199L960 247L873 247L873 215L785 215L785 215L698 215L698 210L611 210L611 253L524 253L524 161L436 161L436 161L349 161L349 145L262 145L262 156L175 156L175 220L87 220L87 291L0 291Z" fill="#55a0cc"></path><path d="M0 460L87 460L87 460L175 460L175 476L262 476L262 498L349 498L349 444L436 444L436 411L524 411L524 438L611 438L611 444L698 444L698 433L785 433L785 444L873 444L873 487L960 487L960 395L960 345L960 382L873 382L873 372L785 372L785 323L698 323L698 328L611 328L611 372L524 372L524 334L436 334L436 388L349 388L349 382L262 382L262 393L175 393L175 377L87 377L87 420L0 420Z" fill="#2475b4"></path><path d="M0 541L87 541L87 541L175 541L175 541L262 541L262 541L349 541L349 541L436 541L436 541L524 541L524 541L611 541L611 541L698 541L698 541L785 541L785 541L873 541L873 541L960 541L960 541L960 393L960 485L873 485L873 442L785 442L785 431L698 431L698 442L611 442L611 436L524 436L524 409L436 409L436 442L349 442L349 496L262 496L262 474L175 474L175 458L87 458L87 458L0 458Z" fill="#054a96"></path></svg>